<svg xmlns="http://www.w3.org/2000/svg" width="1200" height="630" viewBox="0 0 1200 630">
  <defs>
    <linearGradient id="bg" x1="0%" y1="0%" x2="100%" y2="100%">
      <stop offset="0%" stop-color="#f8fafc"/>
      <stop offset="100%" stop-color="#ecfdf5"/>
    </linearGradient>
    <linearGradient id="accent" x1="0%" y1="0%" x2="100%" y2="0%">
      <stop offset="0%" stop-color="#059669"/>
      <stop offset="100%" stop-color="#0d9488"/>
    </linearGradient>
  </defs>
  <rect width="1200" height="630" fill="url(#bg)"/>
  <rect x="0" y="0" width="1200" height="6" fill="url(#accent)"/>
  <rect x="80" y="180" width="80" height="80" rx="16" fill="url(#accent)"/>
  <path d="M102 200h30l14 14v42a7 7 0 01-7 7H102a7 7 0 01-7-7V207a7 7 0 017-7z" fill="none" stroke="white" stroke-width="3" stroke-linecap="round" stroke-linejoin="round"/>
  <path d="M132 200v14h14" fill="none" stroke="white" stroke-width="3" stroke-linecap="round" stroke-linejoin="round"/>
  <text x="190" y="215" font-family="system-ui, -apple-system, sans-serif" font-size="52" font-weight="700" fill="#0f172a">DocuIntelli</text>
  <text x="610" y="215" font-family="system-ui, -apple-system, sans-serif" font-size="52" font-weight="700" fill="#059669"> AI</text>
  <text x="190" y="260" font-family="system-ui, -apple-system, sans-serif" font-size="28" fill="#475569">Simple, Transparent Pricing</text>
  <text x="190" y="330" font-family="system-ui, -apple-system, sans-serif" font-size="22" fill="#94a3b8">Free · Starter $9/mo · Pro $19/mo</text>
  <text x="190" y="380" font-family="system-ui, -apple-system, sans-serif" font-size="18" fill="#94a3b8">Start free with 3 documents. Upgrade anytime for more storage and features.</text>
  <text x="190" y="560" font-family="system-ui, -apple-system, sans-serif" font-size="20" fill="#94a3b8">docuintelli.com</text>
</svg>